<svg version="1.1" id="Layer_1" xmlns="http://www.w3.org/2000/svg" xmlns:xlink="http://www.w3.org/1999/xlink" x="0px" y="0px"
	 width="100%" viewBox="0 0 915 915" enable-background="new 0 0 915 915" xml:space="preserve">
<path fill="#012060" opacity="1.000000" stroke="none" 
	d="
M2.000000,1.000000 
	C306.620911,1.000000 611.241821,1.000000 915.931396,1.000000 
	C915.931396,305.908417 915.931396,610.816833 915.931396,916.000000 
	C611.637329,916.000000 307.274628,916.000000 2.455199,915.544067 
	C1.998998,610.392090 1.999499,305.696045 2.000000,1.000000 
M54.714828,267.119995 
	C32.400238,315.178528 18.964420,365.552216 14.616687,418.410797 
	C10.858448,464.102448 13.885965,509.261810 23.949869,553.958984 
	C38.250675,617.473633 65.377693,674.995117 104.945145,726.660950 
	C134.373932,765.088074 169.207825,797.833435 209.309036,824.886353 
	C255.635605,856.139099 306.109436,877.969543 360.694824,890.053772 
	C410.252075,901.024902 460.239624,903.390320 510.694397,897.455933 
	C559.954956,891.661926 606.853516,877.914368 651.400757,856.316162 
	C700.467957,832.526367 743.738037,800.697327 781.148438,760.958740 
	C819.253479,720.482239 848.883179,674.548950 869.801147,623.049683 
	C887.489929,579.500366 897.866882,534.254211 901.170715,487.334869 
	C905.124146,431.190125 899.013489,376.204865 882.194641,322.533203 
	C861.640198,256.940521 827.597961,199.154938 780.307983,149.214188 
	C742.435364,109.218544 698.668762,77.246628 648.966736,53.578770 
	C592.114563,26.506060 532.164001,12.186183 469.126831,10.688655 
	C427.557800,9.701129 386.616180,14.005440 346.399567,24.445724 
	C294.144989,38.011093 245.864563,60.296642 201.771194,91.551514 
	C137.589233,137.045853 88.790909,195.436844 54.714828,267.119995 
z"/>
<path fill="#033F8D" opacity="1.000000" stroke="none" 
	d="
M1.500000,1.000000 
	C1.999499,305.696045 1.998998,610.392090 1.999247,915.544067 
	C1.666663,915.833313 1.056200,915.684082 1.044453,915.497192 
	C0.961003,914.169128 1.000000,912.833313 1.000000,911.500000 
	C1.000000,608.000000 1.000000,304.500000 1.500000,1.000000 
z"/>
<path fill="#FBFBFC" opacity="1.000000" stroke="none" 
	d="
M54.849319,266.770020 
	C88.790909,195.436844 137.589233,137.045853 201.771194,91.551514 
	C245.864563,60.296642 294.144989,38.011093 346.399567,24.445724 
	C386.616180,14.005440 427.557800,9.701129 469.126831,10.688655 
	C532.164001,12.186183 592.114563,26.506060 648.966736,53.578770 
	C698.668762,77.246628 742.435364,109.218544 780.307983,149.214188 
	C827.597961,199.154938 861.640198,256.940521 882.194641,322.533203 
	C899.013489,376.204865 905.124146,431.190125 901.170715,487.334869 
	C897.866882,534.254211 887.489929,579.500366 869.801147,623.049683 
	C848.883179,674.548950 819.253479,720.482239 781.148438,760.958740 
	C743.738037,800.697327 700.467957,832.526367 651.400757,856.316162 
	C606.853516,877.914368 559.954956,891.661926 510.694397,897.455933 
	C460.239624,903.390320 410.252075,901.024902 360.694824,890.053772 
	C306.109436,877.969543 255.635605,856.139099 209.309036,824.886353 
	C169.207825,797.833435 134.373932,765.088074 104.945145,726.660950 
	C65.377693,674.995117 38.250675,617.473633 23.949869,553.958984 
	C13.885965,509.261810 10.858448,464.102448 14.616687,418.410797 
	C18.964420,365.552216 32.400238,315.178528 54.849319,266.770020 
M878.641907,438.107391 
	C876.070129,380.303345 862.592407,325.179138 837.527100,273.013245 
	C814.173706,224.410355 782.703552,181.637466 742.893799,145.280243 
	C677.694763,85.735626 601.308533,49.526611 513.698425,37.656666 
	C464.035431,30.928007 414.670380,33.146832 365.704559,44.092926 
	C313.896912,55.674301 265.984375,76.343979 222.122894,106.117088 
	C168.186478,142.729034 124.808807,189.346725 92.314178,245.920761 
	C58.952202,304.004883 40.582489,366.620667 37.016518,433.453308 
	C34.929714,472.563690 38.115753,511.325562 46.942623,549.575806 
	C65.160492,628.521057 103.000832,696.669800 160.041199,754.031433 
	C198.039154,792.243347 242.003311,821.982483 291.593292,843.195435 
	C353.164032,869.533508 417.423737,880.419067 484.264160,876.311584 
	C526.291992,873.729004 567.054810,865.208923 606.362244,850.151489 
	C690.274597,818.007385 757.653381,764.694275 807.679932,690.131104 
	C858.556519,614.301270 881.578369,530.252075 878.641907,438.107391 
z"/>
<path fill="#012060" opacity="1.000000" stroke="none" 
	d="
M878.657715,438.575439 
	C881.578369,530.252075 858.556519,614.301270 807.679932,690.131104 
	C757.653381,764.694275 690.274597,818.007385 606.362244,850.151489 
	C567.054810,865.208923 526.291992,873.729004 484.264160,876.311584 
	C417.423737,880.419067 353.164032,869.533508 291.593292,843.195435 
	C242.003311,821.982483 198.039154,792.243347 160.041199,754.031433 
	C103.000832,696.669800 65.160492,628.521057 46.942623,549.575806 
	C38.115753,511.325562 34.929714,472.563690 37.016518,433.453308 
	C40.582489,366.620667 58.952202,304.004883 92.314178,245.920761 
	C124.808807,189.346725 168.186478,142.729034 222.122894,106.117088 
	C265.984375,76.343979 313.896912,55.674301 365.704559,44.092926 
	C414.670380,33.146832 464.035431,30.928007 513.698425,37.656666 
	C601.308533,49.526611 677.694763,85.735626 742.893799,145.280243 
	C782.703552,181.637466 814.173706,224.410355 837.527100,273.013245 
	C862.592407,325.179138 876.070129,380.303345 878.657715,438.575439 
M741.491882,423.665955 
	C746.935120,418.353455 752.378418,413.040924 758.560242,407.007599 
	C782.970642,431.449463 807.005920,455.515656 831.581787,480.123138 
	C831.716248,478.179840 831.878601,476.926666 831.878845,475.673492 
	C831.890991,412.375305 831.850647,349.077057 831.977722,285.779144 
	C831.985962,281.659149 830.559814,280.822906 826.794373,280.828522 
	C763.496338,280.922943 700.198059,280.894104 636.899841,280.906433 
	C635.822937,280.906647 634.746033,281.077576 632.789551,281.243408 
	C634.444580,283.062653 635.472717,284.283051 636.593506,285.411255 
	C657.833008,306.791504 679.082581,328.161682 700.332214,349.531799 
	C705.211365,354.438599 705.215088,354.434906 700.409912,360.029083 
	C699.867188,360.562378 699.324463,361.095673 697.886963,361.803711 
	C650.239197,361.830505 602.591370,361.858429 554.943604,361.872467 
	C554.288208,361.872650 553.632751,361.697906 552.982727,360.717896 
	C552.988525,300.572723 553.007568,240.427521 552.935547,180.282440 
	C552.933411,178.493073 551.975342,176.704865 550.643616,174.578873 
	C549.651367,174.496017 548.659180,174.340851 547.666931,174.340652 
	C487.677063,174.328812 427.687225,174.327820 367.697357,174.343872 
	C366.574554,174.344162 365.451813,174.560806 363.802246,174.730789 
	C363.802246,237.144302 363.802246,299.359558 363.802246,362.097046 
	C301.194702,362.097046 239.138824,362.097046 177.099030,362.097046 
	C177.099030,424.693390 177.099030,486.762665 177.099030,549.346130 
	C188.211472,549.346130 199.006897,549.346130 209.688080,549.980286 
	C208.577164,551.376343 207.589600,552.895508 206.337387,554.150635 
	C174.222961,586.338013 142.127243,618.544556 109.873047,650.591431 
	C106.588295,653.855103 106.656494,655.681274 109.908081,658.886536 
	C124.846771,673.612488 139.522903,688.604675 154.308365,703.486267 
	C155.541382,704.727295 156.886795,705.856689 159.025192,707.809998 
	C160.570831,705.783142 161.622009,704.025269 163.025574,702.619141 
	C209.736374,655.821167 256.486633,609.062500 303.210480,562.277649 
	C307.316925,558.165833 311.283081,553.914001 316.175659,549.464294 
	C327.008606,549.546936 337.841583,549.629578 348.910431,550.296570 
	C353.804077,554.945190 358.697723,559.593811 363.809784,565.126282 
	C363.861145,567.120911 363.957092,569.115601 363.957397,571.110229 
	C363.965576,624.369812 363.963928,677.629456 363.963928,730.889038 
	C363.963928,732.662598 363.963898,734.436157 363.963898,736.436523 
	C365.779480,736.537170 367.081848,736.672241 368.384247,736.672424 
	C427.802002,736.680237 487.219757,736.681030 546.637512,736.649292 
	C548.272278,736.648376 549.906921,736.283752 552.171021,735.669678 
	C552.447388,733.917236 552.959656,732.165466 552.964111,730.412354 
	C553.019104,708.764221 553.015259,687.115967 552.996643,665.467712 
	C552.963440,626.835083 552.909851,588.202515 553.657837,549.312012 
	C568.662048,549.452393 583.666321,549.592773 598.897400,550.320374 
	C601.198059,553.280701 603.498657,556.241089 606.039246,559.510254 
	C610.136536,555.164124 612.728271,552.414978 616.186279,549.425415 
	C656.797302,549.425415 697.408325,549.425415 738.601624,549.425415 
	C738.601624,546.992004 738.601501,545.211243 738.601562,543.430481 
	C738.603027,506.444916 738.599060,469.459351 738.619934,432.473785 
	C738.621155,430.316681 738.823792,428.159668 739.468384,425.761261 
	C739.936646,425.148254 740.404907,424.535248 741.491882,423.665955 
z"/>
<path fill="#FCFCFD" opacity="1.000000" stroke="none" 
	d="
M209.802307,549.346130 
	C199.006897,549.346130 188.211472,549.346130 177.099030,549.346130 
	C177.099030,486.762665 177.099030,424.693390 177.099030,362.097046 
	C239.138824,362.097046 301.194702,362.097046 363.802246,362.097046 
	C363.802246,299.359558 363.802246,237.144302 363.802246,174.730789 
	C365.451813,174.560806 366.574554,174.344162 367.697357,174.343872 
	C427.687225,174.327820 487.677063,174.328812 547.666931,174.340652 
	C548.659180,174.340851 549.651367,174.496017 551.005737,175.218979 
	C551.361267,236.304535 551.343140,296.749969 551.416138,357.195343 
	C551.417908,358.665802 552.434265,360.135010 552.977356,361.604828 
	C553.632751,361.697906 554.288208,361.872650 554.943604,361.872467 
	C602.591370,361.858429 650.239197,361.830505 698.717896,361.839752 
	C700.345276,361.796906 701.141602,361.718018 702.402100,361.730103 
	C714.657288,361.858826 726.448364,361.896606 738.287109,362.406067 
	C738.362000,380.299561 738.361694,397.721527 738.439270,415.143127 
	C738.455383,418.763611 738.760620,422.382812 738.932617,426.002625 
	C738.823792,428.159668 738.621155,430.316681 738.619934,432.473785 
	C738.599060,469.459351 738.603027,506.444916 738.601562,543.430481 
	C738.601501,545.211243 738.601624,546.992004 738.601624,549.425415 
	C697.408325,549.425415 656.797302,549.425415 615.287537,549.387451 
	C609.149353,549.477356 603.909973,549.605225 598.670532,549.733154 
	C583.666321,549.592773 568.662048,549.452393 552.800415,549.567627 
	C551.746887,551.776062 551.380615,553.728821 551.379395,555.681763 
	C551.346497,609.990417 551.344727,664.299133 551.357056,718.607788 
	C551.358337,724.434753 551.477234,730.261780 551.541626,736.088745 
	C549.906921,736.283752 548.272278,736.648376 546.637512,736.649292 
	C487.219757,736.681030 427.802002,736.680237 368.384247,736.672424 
	C367.081848,736.672241 365.779480,736.537170 363.963898,736.436523 
	C363.963898,734.436157 363.963928,732.662598 363.963928,730.889038 
	C363.963928,677.629456 363.965576,624.369812 363.957397,571.110229 
	C363.957092,569.115601 363.861145,567.120911 363.844910,564.220642 
	C363.880005,558.781311 363.880005,554.247559 363.880005,549.023682 
	C358.397919,549.271912 353.536224,549.492065 348.674530,549.712158 
	C337.841583,549.629578 327.008606,549.546936 315.282288,549.427734 
	C279.526703,549.376099 244.664505,549.361145 209.802307,549.346130 
M642.015076,525.918274 
	C666.241577,525.918274 690.468079,525.918274 714.926453,525.918274 
	C714.926453,500.566345 714.926453,475.815979 715.109741,450.135345 
	C715.109741,428.596039 715.109741,407.056702 715.109741,385.198822 
	C700.435425,385.198822 686.658630,385.198822 671.959839,385.170013 
	C628.019287,385.190521 584.078674,385.211029 539.208496,385.060730 
	C535.261841,384.612213 531.315125,384.163696 527.662781,382.856812 
	C527.741028,381.696350 527.887390,380.535919 527.887634,379.375458 
	C527.899292,320.243988 527.900818,261.112488 527.883850,201.981003 
	C527.883484,200.706131 527.655884,199.431335 527.525269,198.062134 
	C480.769226,198.062134 434.361328,198.062134 387.341675,198.062134 
	C387.341675,260.481781 387.341675,322.655090 387.341675,385.165344 
	C384.760803,385.165344 382.788483,385.165344 380.816193,385.165344 
	C322.517548,385.165344 264.218903,385.158844 205.920258,385.197388 
	C204.191681,385.198517 202.463425,385.673096 200.271744,386.680511 
	C200.246445,431.996552 200.218674,477.312622 200.215866,522.628662 
	C200.215820,523.425659 200.515732,524.222656 201.191910,525.759705 
	C212.711044,525.677490 224.230194,525.595215 236.678253,525.809814 
	C286.756989,525.809814 336.835754,525.809814 387.455170,525.809814 
	C387.455170,547.725403 387.455170,568.976929 387.378967,591.133118 
	C387.378967,631.712646 387.378967,672.292114 387.378967,712.863098 
	C434.570221,712.863098 481.097107,712.863098 528.068237,712.863098 
	C528.068237,650.408447 528.068237,588.352173 528.068237,525.842712 
	C543.307007,525.842712 558.102173,525.842712 573.830444,526.034668 
	C596.250610,525.976135 618.670837,525.917542 642.015076,525.918274 
z"/>
<path fill="#707F9E" opacity="1.000000" stroke="none" 
	d="
M738.239441,361.934387 
	C726.448364,361.896606 714.657288,361.858826 702.271484,361.513123 
	C701.442627,360.754761 701.208496,360.304352 700.974365,359.853943 
	C705.215088,354.434906 705.211365,354.438599 700.332214,349.531799 
	C679.082581,328.161682 657.833008,306.791504 636.593506,285.411255 
	C635.472717,284.283051 634.444580,283.062653 632.789551,281.243408 
	C634.746033,281.077576 635.822937,280.906647 636.899841,280.906433 
	C700.198059,280.894104 763.496338,280.922943 826.794373,280.828522 
	C830.559814,280.822906 831.985962,281.659149 831.977722,285.779144 
	C831.850647,349.077057 831.890991,412.375305 831.878845,475.673492 
	C831.878601,476.926666 831.716248,478.179840 831.581787,480.123138 
	C807.005920,455.515656 782.970642,431.449463 758.560242,407.007599 
	C752.378418,413.040924 746.935120,418.353455 740.935303,423.472534 
	C740.252502,421.472076 740.019653,419.665222 740.016663,417.857941 
	C739.988525,400.937500 740.050354,384.016541 739.922607,367.097015 
	C739.909607,365.372009 738.826172,363.655060 738.239441,361.934387 
z"/>
<path fill="#71809F" opacity="1.000000" stroke="none" 
	d="
M209.745193,549.663208 
	C244.664505,549.361145 279.526703,549.376099 314.851654,549.559204 
	C311.283081,553.914001 307.316925,558.165833 303.210480,562.277649 
	C256.486633,609.062500 209.736374,655.821167 163.025574,702.619141 
	C161.622009,704.025269 160.570831,705.783142 159.025192,707.809998 
	C156.886795,705.856689 155.541382,704.727295 154.308365,703.486267 
	C139.522903,688.604675 124.846771,673.612488 109.908081,658.886536 
	C106.656494,655.681274 106.588295,653.855103 109.873047,650.591431 
	C142.127243,618.544556 174.222961,586.338013 206.337387,554.150635 
	C207.589600,552.895508 208.577164,551.376343 209.745193,549.663208 
z"/>
<path fill="#001054" opacity="1.000000" stroke="none" 
	d="
M552.980042,361.161377 
	C552.434265,360.135010 551.417908,358.665802 551.416138,357.195343 
	C551.343140,296.749969 551.361267,236.304535 551.415466,175.387604 
	C551.975342,176.704865 552.933411,178.493073 552.935547,180.282440 
	C553.007568,240.427521 552.988525,300.572723 552.980042,361.161377 
z"/>
<path fill="#001054" opacity="1.000000" stroke="none" 
	d="
M551.856323,735.879211 
	C551.477234,730.261780 551.358337,724.434753 551.357056,718.607788 
	C551.344727,664.299133 551.346497,609.990417 551.379395,555.681763 
	C551.380615,553.728821 551.746887,551.776062 552.403931,549.696533 
	C552.909851,588.202515 552.963440,626.835083 552.996643,665.467712 
	C553.015259,687.115967 553.019104,708.764221 552.964111,730.412354 
	C552.959656,732.165466 552.447388,733.917236 551.856323,735.879211 
z"/>
<path fill="#7785A3" opacity="1.000000" stroke="none" 
	d="
M348.792480,550.004395 
	C353.536224,549.492065 358.397919,549.271912 363.880005,549.023682 
	C363.880005,554.247559 363.880005,558.781311 363.735687,563.778687 
	C358.697723,559.593811 353.804077,554.945190 348.792480,550.004395 
z"/>
<path fill="#7485A7" opacity="1.000000" stroke="none" 
	d="
M738.287109,362.406067 
	C738.826172,363.655060 739.909607,365.372009 739.922607,367.097015 
	C740.050354,384.016541 739.988525,400.937500 740.016663,417.857941 
	C740.019653,419.665222 740.252502,421.472076 740.625977,423.600708 
	C740.404907,424.535248 739.936646,425.148254 739.200500,425.881958 
	C738.760620,422.382812 738.455383,418.763611 738.439270,415.143127 
	C738.361694,397.721527 738.362000,380.299561 738.287109,362.406067 
z"/>
<path fill="#7485A7" opacity="1.000000" stroke="none" 
	d="
M598.783936,550.026733 
	C603.909973,549.605225 609.149353,549.477356 614.854370,549.507690 
	C612.728271,552.414978 610.136536,555.164124 606.039246,559.510254 
	C603.498657,556.241089 601.198059,553.280701 598.783936,550.026733 
z"/>
<path fill="#7485A7" opacity="1.000000" stroke="none" 
	d="
M700.692139,359.941528 
	C701.208496,360.304352 701.442627,360.754761 701.807373,361.422150 
	C701.141602,361.718018 700.345276,361.796906 699.165283,361.752380 
	C699.324463,361.095673 699.867188,360.562378 700.692139,359.941528 
z"/>
<path fill="#012161" opacity="1.000000" stroke="none" 
	d="
M235.749329,525.513000 
	C224.230194,525.595215 212.711044,525.677490 201.260635,525.371521 
	C201.789932,524.570129 202.660461,524.139282 202.643555,523.746643 
	C202.545044,521.459717 202.034256,519.181946 202.031982,516.900818 
	C201.990555,475.272247 202.019501,433.643677 201.947891,392.015228 
	C201.944397,389.985107 201.157242,387.956329 200.735016,385.926941 
	C202.463425,385.673096 204.191681,385.198517 205.920258,385.197388 
	C264.218903,385.158844 322.517548,385.165344 380.816193,385.165344 
	C382.788483,385.165344 384.760803,385.165344 387.341675,385.165344 
	C387.341675,322.655090 387.341675,260.481781 387.341675,198.062134 
	C434.361328,198.062134 480.769226,198.062134 527.525269,198.062134 
	C527.655884,199.431335 527.883484,200.706131 527.883850,201.981003 
	C527.900818,261.112488 527.899292,320.243988 527.887634,379.375458 
	C527.887390,380.535919 527.741028,381.696350 527.201599,383.352112 
	C525.177124,385.340851 523.583069,386.803497 522.055054,388.332214 
	C485.102875,425.302612 448.159241,462.281616 411.205475,499.250427 
	C409.852905,500.603546 408.413727,501.870087 406.440155,503.713989 
	C381.308655,478.611359 356.618164,453.949280 331.710327,429.070068 
	C330.667786,430.003876 329.528931,430.929749 328.496613,431.962219 
	C298.599030,461.862244 268.707886,491.768768 238.839417,521.697815 
	C237.689590,522.849976 236.774033,524.235962 235.749329,525.513000 
z"/>
<path fill="#70809F" opacity="1.000000" stroke="none" 
	d="
M236.213791,525.661377 
	C236.774033,524.235962 237.689590,522.849976 238.839417,521.697815 
	C268.707886,491.768768 298.599030,461.862244 328.496613,431.962219 
	C329.528931,430.929749 330.667786,430.003876 331.710327,429.070068 
	C356.618164,453.949280 381.308655,478.611359 406.440155,503.713989 
	C408.413727,501.870087 409.852905,500.603546 411.205475,499.250427 
	C448.159241,462.281616 485.102875,425.302612 522.055054,388.332214 
	C523.583069,386.803497 525.177124,385.340851 527.054443,383.781311 
	C531.315125,384.163696 535.261841,384.612213 539.710205,385.473877 
	C540.866333,386.812592 541.403259,387.855286 542.192261,388.646637 
	C562.886841,409.404175 583.604370,430.138824 604.335632,450.859802 
	C605.120544,451.644257 606.080505,452.253601 606.846313,452.856018 
	C607.449524,452.550751 607.802490,452.466461 608.021423,452.247864 
	C629.116028,431.184235 650.214539,410.124298 671.238037,388.989868 
	C672.142395,388.080719 672.349792,386.478302 672.881836,385.198822 
	C686.658630,385.198822 700.435425,385.198822 715.109741,385.198822 
	C715.109741,407.056702 715.109741,428.596039 714.716553,450.731445 
	C690.267334,475.298096 666.205627,499.262878 642.188110,523.271912 
	C641.574097,523.885803 641.445801,524.985718 641.091003,525.858948 
	C618.670837,525.917542 596.250610,525.976135 573.343750,525.601685 
	C572.434509,524.488220 572.123413,523.696655 571.572815,523.143616 
	C559.121948,510.636414 546.649963,498.150116 534.158325,485.683594 
	C533.493408,485.019958 532.620667,484.564514 531.213623,483.562958 
	C489.683319,525.022522 448.261017,566.374268 406.132721,608.430847 
	C403.368225,605.418396 400.704254,602.237061 397.742554,599.362488 
	C394.455139,596.171814 390.895996,593.261108 387.455170,590.228455 
	C387.455170,568.976929 387.455170,547.725403 387.455170,525.809814 
	C336.835754,525.809814 286.756989,525.809814 236.213791,525.661377 
z"/>
<path fill="#012160" opacity="1.000000" stroke="none" 
	d="
M387.417053,590.680786 
	C390.895996,593.261108 394.455139,596.171814 397.742554,599.362488 
	C400.704254,602.237061 403.368225,605.418396 406.132721,608.430847 
	C448.261017,566.374268 489.683319,525.022522 531.213623,483.562958 
	C532.620667,484.564514 533.493408,485.019958 534.158325,485.683594 
	C546.649963,498.150116 559.121948,510.636414 571.572815,523.143616 
	C572.123413,523.696655 572.434509,524.488220 572.877197,525.505676 
	C558.102173,525.842712 543.307007,525.842712 528.068237,525.842712 
	C528.068237,588.352173 528.068237,650.408447 528.068237,712.863098 
	C481.097107,712.863098 434.570221,712.863098 387.378967,712.863098 
	C387.378967,672.292114 387.378967,631.712646 387.417053,590.680786 
z"/>
<path fill="#012161" opacity="1.000000" stroke="none" 
	d="
M672.420837,385.184418 
	C672.349792,386.478302 672.142395,388.080719 671.238037,388.989868 
	C650.214539,410.124298 629.116028,431.184235 608.021423,452.247864 
	C607.802490,452.466461 607.449524,452.550751 606.846313,452.856018 
	C606.080505,452.253601 605.120544,451.644257 604.335632,450.859802 
	C583.604370,430.138824 562.886841,409.404175 542.192261,388.646637 
	C541.403259,387.855286 540.866333,386.812592 540.175049,385.559265 
	C584.078674,385.211029 628.019287,385.190521 672.420837,385.184418 
z"/>
<path fill="#032261" opacity="1.000000" stroke="none" 
	d="
M641.553040,525.888611 
	C641.445801,524.985718 641.574097,523.885803 642.188110,523.271912 
	C666.205627,499.262878 690.267334,475.298096 714.624878,451.196564 
	C714.926453,475.815979 714.926453,500.566345 714.926453,525.918274 
	C690.468079,525.918274 666.241577,525.918274 641.553040,525.888611 
z"/>
<path fill="#001155" opacity="1.000000" stroke="none" 
	d="
M200.503387,386.303711 
	C201.157242,387.956329 201.944397,389.985107 201.947891,392.015228 
	C202.019501,433.643677 201.990555,475.272247 202.031982,516.900818 
	C202.034256,519.181946 202.545044,521.459717 202.643555,523.746643 
	C202.660461,524.139282 201.789932,524.570129 201.002518,525.001465 
	C200.515732,524.222656 200.215820,523.425659 200.215866,522.628662 
	C200.218674,477.312622 200.246445,431.996552 200.503387,386.303711 
z"/>
</svg>